<?xml version="1.0" encoding="UTF-8"?><svg id="Layer_2" xmlns="http://www.w3.org/2000/svg" width="56.16" height="342" viewBox="0 0 56.16 342"><defs><style>.cls-1{fill:#295e4f;}.cls-1,.cls-2,.cls-3,.cls-4{stroke-width:0px;}.cls-2{fill:#0f7078;}.cls-3{fill:#c49945;}.cls-4{fill:#dbdbd6;}</style></defs><g id="Layer_1-2"><path class="cls-3" d="m0,288.97h55.73v-58.23H0v58.23Zm0-115.37h55.73v-58.23H0v58.23ZM0,58.23h55.73V0H0v58.23Z"/><path class="cls-3" d="m42.08,82.73H11.31v-.18c0-8.78,6.89-15.9,15.38-15.9s15.38,7.12,15.38,15.9v.18Z"/><path class="cls-4" d="m41.85,103.38H11.08v-.18c0-8.78,6.89-15.9,15.38-15.9s15.38,7.12,15.38,15.9v.18Z"/><rect class="cls-3" x="25.17" y="181.28" width="4" height="28.07" transform="translate(-168.31 221.3) rotate(-89.65)"/><rect class="cls-4" x="25.21" y="188.54" width="4" height="28.07" transform="translate(-175.53 228.56) rotate(-89.65)"/><rect class="cls-3" x="25.26" y="195.81" width="4" height="28.07" transform="translate(-182.75 235.84) rotate(-89.65)"/><rect class="cls-1" x="35.75" y="9.85" width="3.87" height="40.5"/><rect class="cls-1" x="26.16" y="9.85" width="3.87" height="40.5"/><rect class="cls-1" x="16.56" y="9.85" width="3.87" height="40.5"/><polygon class="cls-2" points="0 58.31 56.16 58.31 39.59 41.32 35.72 37.35 29.99 31.48 26.12 27.51 20.4 21.64 16.52 17.67 0 .72 0 58.31"/><polygon class="cls-4" points="39.59 50.35 35.72 50.35 35.72 37.35 39.59 41.32 39.59 50.35"/><polygon class="cls-4" points="29.99 50.35 26.12 50.35 26.12 27.51 29.99 31.48 29.99 50.35"/><polygon class="cls-4" points="20.4 50.35 16.52 50.35 16.52 17.67 20.4 21.64 20.4 50.35"/><path class="cls-1" d="m31.13,151.7c1.73,2.46,2.84,5.17,2.84,7.62,0-6.75,8.4-15.44,14.94-15.44-6.53,0-14.94-8.69-14.94-15.44,0,2.46-1.11,5.16-2.84,7.62-1.73-2.46-2.84-5.16-2.84-7.62,0,2.54-1.19,5.35-3.02,7.88-1.83-2.52-3.02-5.34-3.02-7.88,0,6.76-8.4,15.44-14.93,15.44,6.53,0,14.93,8.69,14.93,15.44,0-2.54,1.19-5.35,3.02-7.88,1.83,2.52,3.02,5.34,3.02,7.88,0-2.45,1.11-5.16,2.84-7.62"/><path class="cls-4" d="m28.72,317.02c11.3,1.53,23.97-9.18,22.62-23.39-12.39-1.48-24.02,10.34-22.62,23.39"/><path class="cls-4" d="m28.75,318.3c-1.53,13.13,10.11,25,22.57,23.59,1.59-12.69-9.74-24.58-22.57-23.59"/><path class="cls-4" d="m27.3,318.3c-13.94-.95-24.36,12.11-22.3,23.61,12.18,1.24,23.81-10.42,22.3-23.61"/><path class="cls-4" d="m5.03,293.61c-2.3,13.34,10.94,25.28,22.3,23.33,1.64-12.41-10.38-24.99-22.3-23.33"/><path class="cls-1" d="m47.26,240.69c-1.38.21-2.66.32-3.91.61-9.4,2.19-15.73,11.15-15.54,20.23.13,6.14.02,12.28.02,18.42v2.15c.63,0,1.11.03,1.59,0,9.27-.6,17.7-9.65,17.84-19.24.1-6.92.06-13.85.08-20.77,0-.4-.05-.8-.09-1.39"/><path class="cls-1" d="m26.89,282.11v-1.99c0-6.09-.02-12.19,0-18.29.03-8.53-3.77-14.7-10.86-18.78-2.59-1.49-5.43-2.21-8.53-2.24-.03.55-.07.99-.07,1.44,0,6.46,0,12.93.01,19.39.01,7.73,3.46,13.5,9.64,17.57,2.89,1.9,6.11,2.93,9.8,2.88"/></g></svg>